<?xml version="1.0" encoding="utf-8"?>
<!-- Generator: Adobe Illustrator 21.1.0, SVG Export Plug-In . SVG Version: 6.00 Build 0)  -->
<svg version="1.1" id="Слой_1" xmlns="http://www.w3.org/2000/svg" xmlns:xlink="http://www.w3.org/1999/xlink" x="0px" y="0px"
	 viewBox="0 0 155 20" style="enable-background:new 0 0 155 20;" xml:space="preserve">
<style type="text/css">
	.st0{fill:#262626;}
</style>
<path class="st0" d="M4.8,1.3C5.1,1.1,5.6,1,6.1,0.8c0.6-0.1,1.2-0.2,1.8-0.2c0.8,0,1.6,0.1,2.2,0.4c0.7,0.2,1.1,0.6,1.3,1.1
	c0.3,0.9,0.6,1.9,1,3c0.3,1.2,0.7,2.3,1.1,3.6c0.3,1.2,0.7,2.4,1,3.6c0.3,1.2,0.6,2.2,0.9,3.2c-0.2,0.2-0.5,0.4-0.9,0.5
	c-0.4,0.1-0.9,0.2-1.4,0.2c-0.4,0-0.7,0-1-0.1c-0.3-0.1-0.5-0.2-0.7-0.3c-0.2-0.1-0.3-0.3-0.4-0.5c-0.1-0.2-0.2-0.5-0.3-0.8
	l-0.4-1.7H5.6c-0.1,0.5-0.3,1-0.4,1.5c-0.1,0.5-0.3,1.1-0.4,1.6C4.5,16,4.3,16.1,4,16.1c-0.3,0.1-0.6,0.1-0.9,0.1
	c-0.9,0-1.5-0.1-1.9-0.4c-0.4-0.3-0.6-0.7-0.6-1.2c0-0.2,0-0.5,0.1-0.7c0.1-0.2,0.1-0.5,0.2-0.8c0.1-0.4,0.3-1,0.5-1.7
	c0.2-0.7,0.5-1.4,0.7-2.1c0.3-0.8,0.5-1.6,0.8-2.4s0.5-1.6,0.8-2.3c0.3-0.7,0.5-1.4,0.7-2C4.6,2,4.7,1.6,4.8,1.3z M7.8,4.5
	C7.6,5.2,7.3,6,7.1,6.9C6.8,7.7,6.5,8.6,6.3,9.5h3.1C9.1,8.6,8.9,7.7,8.6,6.8C8.4,6,8.2,5.2,8,4.5H7.8z M16.3,8.4
	c0-1.3,0.2-2.4,0.6-3.4c0.4-1,1-1.8,1.7-2.5c0.7-0.7,1.5-1.2,2.5-1.6c1-0.3,2-0.5,3.1-0.5c1.1,0,2.1,0.2,3.1,0.5
	c1,0.4,1.8,0.9,2.5,1.6c0.7,0.7,1.3,1.5,1.7,2.5c0.4,1,0.6,2.2,0.6,3.4c0,1.6-0.3,3-0.9,4.2c-0.6,1.1-1.4,2-2.5,2.7
	c0.3,0.1,0.5,0.2,0.9,0.4c0.4,0.1,0.7,0.3,1.1,0.4c0.4,0.1,0.8,0.3,1.2,0.4c0.4,0.1,0.8,0.3,1.1,0.4c0,0.1,0,0.2,0,0.3
	c0,0.1,0,0.2,0,0.2c0,0.9-0.3,1.6-0.8,2.1c-0.5,0.4-1.1,0.7-1.9,0.7c-0.8,0-1.6-0.2-2.4-0.7c-0.8-0.4-1.6-1-2.5-1.8l-1.1-1h-0.2
	c-1.1,0-2.2-0.2-3.1-0.5c-1-0.4-1.8-0.9-2.5-1.6c-0.7-0.7-1.3-1.5-1.7-2.5C16.5,10.8,16.3,9.7,16.3,8.4z M20.8,8.4
	c0,1.5,0.3,2.7,0.9,3.4s1.4,1.1,2.5,1.1c1,0,1.9-0.4,2.5-1.1c0.6-0.8,0.9-1.9,0.9-3.4c0-1.5-0.3-2.6-0.9-3.4
	c-0.6-0.8-1.4-1.1-2.5-1.1c-1,0-1.9,0.4-2.5,1.1C21.1,5.8,20.8,6.9,20.8,8.4z M48.1,10.4c0,0.9-0.2,1.7-0.5,2.5
	c-0.3,0.7-0.7,1.4-1.3,1.9c-0.6,0.5-1.3,0.9-2.1,1.2c-0.8,0.3-1.8,0.4-2.8,0.4c-1.1,0-2-0.1-2.8-0.4c-0.8-0.3-1.5-0.7-2.1-1.2
	c-0.6-0.5-1-1.2-1.4-1.9c-0.3-0.8-0.4-1.6-0.4-2.5V0.9c0.2,0,0.5-0.1,0.9-0.1c0.4-0.1,0.8-0.1,1.1-0.1c0.4,0,0.7,0,1,0.1
	c0.3,0,0.5,0.1,0.8,0.3c0.2,0.1,0.4,0.4,0.5,0.6S39,2.3,39,2.7v7.6c0,0.8,0.2,1.4,0.6,1.9c0.5,0.4,1,0.7,1.7,0.7
	c0.7,0,1.3-0.2,1.7-0.7c0.4-0.4,0.7-1.1,0.7-1.9V0.9c0.2,0,0.5-0.1,0.9-0.1c0.4-0.1,0.8-0.1,1.1-0.1c0.4,0,0.7,0,1,0.1
	c0.3,0,0.5,0.1,0.8,0.3c0.2,0.1,0.4,0.4,0.5,0.6s0.2,0.6,0.2,1.1V10.4z M54.3,1.3C54.6,1.1,55,1,55.6,0.8c0.6-0.1,1.2-0.2,1.8-0.2
	c0.8,0,1.6,0.1,2.2,0.4c0.7,0.2,1.1,0.6,1.3,1.1c0.3,0.9,0.6,1.9,1,3c0.3,1.2,0.7,2.3,1,3.6c0.3,1.2,0.7,2.4,1,3.6
	c0.3,1.2,0.6,2.2,0.9,3.2c-0.2,0.2-0.5,0.4-0.9,0.5c-0.4,0.1-0.9,0.2-1.4,0.2c-0.4,0-0.7,0-1-0.1c-0.3-0.1-0.5-0.2-0.7-0.3
	c-0.2-0.1-0.3-0.3-0.4-0.5c-0.1-0.2-0.2-0.5-0.3-0.8l-0.5-1.7H55c-0.1,0.5-0.3,1-0.4,1.5c-0.1,0.5-0.3,1.1-0.4,1.6
	c-0.2,0.1-0.5,0.2-0.8,0.2c-0.3,0.1-0.6,0.1-0.9,0.1c-0.8,0-1.5-0.1-1.9-0.4c-0.4-0.3-0.6-0.7-0.6-1.2c0-0.2,0-0.5,0.1-0.7
	c0.1-0.2,0.1-0.5,0.2-0.8c0.1-0.4,0.3-1,0.5-1.7c0.2-0.7,0.5-1.4,0.7-2.1c0.3-0.8,0.5-1.6,0.8-2.4c0.3-0.8,0.6-1.6,0.8-2.3
	c0.3-0.7,0.5-1.4,0.7-2C54,2,54.2,1.6,54.3,1.3z M57.3,4.5c-0.2,0.7-0.5,1.5-0.8,2.3c-0.3,0.8-0.5,1.7-0.8,2.6h3.1
	c-0.2-0.9-0.5-1.8-0.7-2.6c-0.2-0.9-0.5-1.6-0.7-2.3H57.3z M66.8,3.2c0-0.7,0.2-1.3,0.6-1.7c0.4-0.4,1-0.6,1.7-0.6h8.3
	c0.1,0.2,0.2,0.4,0.3,0.7c0.1,0.3,0.1,0.6,0.1,1c0,0.6-0.1,1.1-0.4,1.3c-0.3,0.3-0.6,0.4-1.1,0.4H71v2.3h5.6
	c0.1,0.2,0.2,0.4,0.3,0.7c0.1,0.3,0.2,0.6,0.2,0.9c0,0.6-0.1,1.1-0.4,1.4c-0.3,0.3-0.6,0.4-1.1,0.4H71v2.6h6.4
	c0.1,0.2,0.2,0.4,0.3,0.7c0.1,0.3,0.2,0.6,0.2,0.9c0,0.6-0.1,1.1-0.4,1.4c-0.3,0.3-0.6,0.4-1.1,0.4h-7.3c-0.7,0-1.3-0.2-1.7-0.6
	c-0.4-0.4-0.6-1-0.6-1.7V3.2z M79.7,2.7C79.7,2.5,79.9,2.2,80,2s0.3-0.4,0.6-0.6c0.2-0.2,0.5-0.4,0.8-0.5c0.3-0.1,0.6-0.2,1-0.2
	c0.5,0,0.9,0.1,1.3,0.4c0.4,0.2,0.7,0.6,1.1,1.2l2,3L89.6,1c0.1-0.1,0.3-0.1,0.5-0.2c0.3-0.1,0.5-0.1,0.7-0.1c0.8,0,1.4,0.2,1.8,0.5
	c0.4,0.4,0.7,0.8,0.7,1.4c0,0.5-0.1,0.9-0.4,1.3c-0.2,0.4-0.6,0.8-1,1.3l-2.6,3.2l4.1,5.8c-0.1,0.6-0.4,1.1-0.9,1.5
	c-0.4,0.3-1,0.5-1.8,0.5c-0.5,0-0.9-0.1-1.3-0.4c-0.3-0.3-0.7-0.7-1.1-1.3l-2-3.2l-3.2,4.8c-0.1,0-0.3,0-0.4,0c-0.1,0-0.2,0-0.3,0
	c-1,0-1.7-0.2-2.1-0.6c-0.4-0.4-0.7-0.9-0.7-1.4c0-0.5,0.1-0.9,0.3-1.3c0.2-0.4,0.5-0.8,0.9-1.3l2.6-3.4L79.7,2.7z M101.4,7.9
	c0.7,0,1.2-0.2,1.6-0.5c0.4-0.3,0.6-0.8,0.6-1.5c0-0.6-0.2-1.1-0.6-1.5c-0.4-0.3-1-0.5-1.7-0.5c-0.3,0-0.5,0-0.7,0
	c-0.2,0-0.3,0-0.5,0v3.9H101.4z M100.1,15.9c-0.2,0.1-0.5,0.1-0.9,0.1c-0.4,0.1-0.8,0.1-1.1,0.1s-0.7,0-1-0.1
	c-0.3,0-0.5-0.1-0.7-0.3c-0.2-0.2-0.4-0.4-0.5-0.6c-0.1-0.3-0.2-0.6-0.2-1.1V2.3c0-0.4,0.1-0.6,0.3-0.8c0.2-0.2,0.5-0.4,0.8-0.5
	c0.6-0.2,1.2-0.3,1.9-0.4c0.7-0.1,1.5-0.1,2.2-0.1c2.3,0,4.1,0.5,5.3,1.5c1.2,1,1.8,2.3,1.8,4c0,0.8-0.1,1.6-0.4,2.2
	c-0.3,0.6-0.6,1.2-1.1,1.7c-0.5,0.5-1.1,0.8-1.9,1.1c-0.8,0.3-1.7,0.4-2.7,0.4h-1.8V15.9z M109.5,8.4c0-1.3,0.2-2.4,0.6-3.4
	c0.4-1,1-1.8,1.7-2.5c0.7-0.7,1.6-1.2,2.5-1.6c1-0.3,2-0.5,3.1-0.5c1.1,0,2.2,0.2,3.1,0.5c1,0.4,1.8,0.9,2.5,1.6
	c0.7,0.7,1.3,1.5,1.7,2.5c0.4,1,0.6,2.2,0.6,3.4s-0.2,2.5-0.6,3.5c-0.4,1-1,1.8-1.7,2.5c-0.7,0.7-1.5,1.2-2.5,1.5
	c-1,0.3-2,0.5-3.2,0.5c-1.1,0-2.2-0.2-3.2-0.5c-1-0.4-1.8-0.9-2.5-1.6c-0.7-0.7-1.3-1.5-1.6-2.5C109.7,10.8,109.5,9.7,109.5,8.4z
	 M114,8.4c0,1.5,0.3,2.7,0.9,3.4c0.6,0.8,1.4,1.1,2.5,1.1c1.1,0,1.9-0.4,2.5-1.1c0.6-0.8,0.9-1.9,0.9-3.4c0-1.5-0.3-2.6-0.9-3.4
	c-0.6-0.8-1.4-1.1-2.5-1.1c-1,0-1.9,0.4-2.5,1.1C114.3,5.8,114,6.9,114,8.4z M132.2,11.1v4.8c-0.2,0.1-0.5,0.1-0.9,0.1
	c-0.4,0.1-0.8,0.1-1.2,0.1c-0.4,0-0.7,0-1-0.1c-0.3,0-0.5-0.1-0.7-0.3c-0.2-0.2-0.3-0.4-0.4-0.6c-0.1-0.3-0.2-0.6-0.2-1.1V2.3
	c0-0.4,0.1-0.6,0.3-0.8c0.2-0.2,0.5-0.4,0.8-0.5c0.6-0.2,1.2-0.3,2-0.4c0.8-0.1,1.6-0.1,2.4-0.1c2.3,0,4,0.5,5.2,1.5
	c1.2,1,1.8,2.3,1.8,3.9c0,1-0.3,1.9-0.8,2.6c-0.5,0.7-1.2,1.3-1.9,1.7c0.6,0.8,1.2,1.6,1.8,2.3c0.6,0.7,1,1.4,1.4,1.9
	c-0.2,0.6-0.5,1-0.9,1.4c-0.4,0.3-0.9,0.5-1.5,0.5c-0.4,0-0.7,0-0.9-0.1c-0.3-0.1-0.5-0.2-0.7-0.4c-0.2-0.2-0.4-0.3-0.6-0.6
	c-0.2-0.2-0.3-0.4-0.5-0.7l-2.1-3.4H132.2z M133.7,7.8c0.6,0,1.1-0.2,1.5-0.5c0.4-0.3,0.6-0.8,0.6-1.5s-0.2-1.1-0.6-1.4
	c-0.4-0.3-1-0.5-1.9-0.5c-0.3,0-0.4,0-0.6,0c-0.1,0-0.3,0-0.5,0.1v3.8H133.7z M142,4.3c-0.1-0.2-0.2-0.4-0.3-0.8s-0.1-0.6-0.1-1
	c0-0.6,0.1-1.1,0.4-1.4c0.3-0.3,0.7-0.4,1.2-0.4H154c0.1,0.2,0.2,0.4,0.3,0.8c0.1,0.3,0.2,0.6,0.2,1c0,0.6-0.2,1.1-0.4,1.4
	c-0.3,0.3-0.7,0.4-1.1,0.4h-2.8v11.5c-0.2,0.1-0.5,0.1-0.9,0.1c-0.4,0.1-0.8,0.1-1.1,0.1c-0.4,0-0.7,0-1-0.1c-0.3,0-0.5-0.1-0.7-0.3
	c-0.2-0.2-0.4-0.4-0.4-0.6c-0.1-0.3-0.2-0.6-0.2-1.1V4.3H142z"/>
</svg>
