<?xml version="1.0" encoding="utf-8"?>
<!-- Generator: Adobe Illustrator 21.1.0, SVG Export Plug-In . SVG Version: 6.00 Build 0)  -->
<svg version="1.1" id="Слой_1" xmlns="http://www.w3.org/2000/svg" xmlns:xlink="http://www.w3.org/1999/xlink" x="0px" y="0px"
	 viewBox="0 0 163 53" style="enable-background:new 0 0 163 53;" xml:space="preserve">
<style type="text/css">
	.st0{fill:#262626;}
</style>
<path class="st0" d="M5.7,11.4c0.7,2.7,1.1,7,1.2,13c0.1,6,0.3,9.4,0.8,10.4c0.5,1,1.3,1.6,2.4,1.8c1.2,0.2,1.9,1.2,2.1,3
	c0.1,1.3-0.3,2-1.3,2.3c-0.3,0.1-0.6,0.1-1,0.1c-1.3-0.1-2.5-0.7-3.5-1.7c-1.5-1.6-2.3-5.2-2.2-10.7c0-3-0.1-5.9-0.4-8.8
	C3.5,18,3.2,16.1,3,15.2c-0.2-0.9-0.3-1.5-0.2-1.7C2.8,13.3,2.9,13.1,3,13l1.2-1.8c0.2-0.3,0.4-0.4,0.5-0.5
	C5.2,10.6,5.5,10.8,5.7,11.4z M7.9,8.8c-1.4,0.3-2.4,0.5-3,0.7c-0.6,0.2-1.7,0.6-3.3,1.3C1,11,0.6,11,0.4,10.6C0,10,0.4,9.3,1.6,8.5
	C0.8,8,0.3,7.4,0.2,6.8C0,5.7,0.5,4.3,1.6,2.7c1.2-1.6,2.4-2.4,3.8-2.2C6.5,0.5,6.9,1,6.8,2C6.7,3,6.5,3.7,6.2,4.1
	C5.9,4.5,5.7,4.7,5.6,4.8C5.2,5,4.9,5,4.6,4.6C4.3,4.2,4,4,3.6,3.9C3.1,3.9,2.8,4,2.6,4.2c-0.2,0.2-0.2,0.5,0,0.7
	c0.8,0.8,2.1,1.2,3.7,1.3c0.3,0,0.7-0.1,1.2-0.2c0.5-0.1,1-0.2,1.2-0.2c0.3,0,0.5,0.1,0.7,0.4c0.1,0.3,0.2,0.5,0.1,0.7
	C8.9,8,8.4,8.7,7.9,8.8z M8.3,24.9c4.3,1.2,7.1,2.6,8.5,4.4c1.3,1.7,1.9,3.4,1.9,5.1c0,4.2-1.5,6.6-4.3,7.3
	c-1.2,0.3-2.7,0.4-4.5,0.3c-0.7-0.1-1.1-0.5-1.4-1.3c-0.3-0.8-0.3-1.6,0-2.5c0.4-1.2,0.9-1.7,1.6-1.6c2.6,0.4,4.9-0.3,7.1-1.9
	c-1.8-2.4-5.2-4.4-10.3-6c-0.6-0.2-0.9-0.9-0.9-2.3c0-1.1,0.1-2,0.3-2.5c1.1-2.5,4.3-5.4,9.6-8.5c5.4-3.2,9.5-5.3,12.1-6.2
	c1.4-0.5,2-0.1,1.6,1.3L29,13.2c-0.1,0.6-0.5,0.9-1,1.2c-3.3,1.3-7,3.1-11.2,5.4C12.6,22,9.8,23.7,8.3,24.9z M37.9,34.7
	c-0.8-1.3-1.6-1.3-2.5-0.2C36.1,35.3,37,35.4,37.9,34.7z M34.1,32.8c1-2.9,2.2-4.3,3.5-4.2c1,0,1.8,0.6,2.5,1.8
	c0.7,1.2,1.1,2.5,1.2,4c0.1,1.5-0.1,3.4-0.7,5.9c-0.6,2.4-1.8,4.7-3.5,6.8c-1.7,2.1-3.2,3.2-4.4,3.3c-0.9,0.1-2.3,0-4.2-0.4
	c-1.8-0.4-3.2-0.8-4.1-1.1c-0.3-0.1-0.4-0.3-0.3-0.7c0.1-0.3,0.3-0.5,0.8-0.4c1.6,0.2,3.5,0.1,5.7-0.4c1.1-0.2,2.6-1.3,4.8-3.1
	c2.1-1.8,3.4-3.3,3.8-4.5c-0.1-0.3-0.2-0.7-0.3-1.2c-1.1,1.4-2.5,1.8-4.1,1.1C33,38.8,32.8,36.5,34.1,32.8z M47.6,13.3
	c0.5-1.2,0.9-0.9,1.1,0.8l1,9.8c0.8,8.8,0.6,14.3-0.6,16.5c-0.3,0.5-0.5,0.7-0.8,0.6c-0.2-0.1-0.4-0.7-0.3-1.9
	c0-2.1-0.4-6.7-1.4-13.9l-0.9-6.7c-0.1-0.6,0-1.1,0.3-1.6L47.6,13.3z M67.4,11.4c0.7,2.7,1.1,7,1.2,13c0.1,6,0.3,9.4,0.8,10.4
	c0.5,1,1.3,1.6,2.4,1.8c1.2,0.2,1.9,1.2,2.1,3c0.1,1.3-0.3,2-1.3,2.3c-0.3,0.1-0.6,0.1-1,0.1c-1.3-0.1-2.5-0.7-3.5-1.7
	c-1.5-1.6-2.3-5.2-2.2-10.7c0-3-0.1-5.9-0.4-8.8c-0.3-2.9-0.6-4.8-0.8-5.7c-0.2-0.9-0.3-1.5-0.2-1.7c0.1-0.2,0.1-0.4,0.2-0.5
	l1.2-1.8c0.2-0.3,0.4-0.4,0.5-0.5C66.8,10.6,67.2,10.8,67.4,11.4z M73.9,50.7c-1.4,0.3-2.4,0.5-3,0.7c-0.6,0.2-1.7,0.7-3.3,1.4
	c-0.5,0.2-0.9,0.1-1.1-0.3c-0.4-0.6,0-1.3,1.2-2.1c-0.8-0.5-1.3-1-1.4-1.6c-0.2-1.2,0.3-2.6,1.4-4.2c1.2-1.6,2.4-2.4,3.8-2.2
	c1,0.1,1.5,0.6,1.3,1.6c-0.1,1-0.3,1.7-0.6,2.1c-0.3,0.4-0.5,0.7-0.6,0.7c-0.4,0.3-0.7,0.2-1-0.2c-0.3-0.4-0.6-0.6-1.1-0.6
	c-0.4,0-0.7,0.1-0.9,0.3c-0.2,0.2-0.2,0.5,0,0.7c0.8,0.8,2.1,1.2,3.7,1.3c0.3,0,0.7-0.1,1.2-0.2c0.5-0.1,1-0.2,1.2-0.2
	c0.3,0,0.5,0.1,0.7,0.4c0.1,0.3,0.2,0.5,0.1,0.7C75,49.9,74.4,50.6,73.9,50.7z M71.7,36.7c2.9,0.5,5.5-0.1,7.6-1.9
	c-0.9-2.6-4.2-5-10.1-7.1c-1.3-0.5-1.6-2-0.7-4.5c1.1-3,4.3-6,9.5-9c5.1-3,9.2-5,12.3-6.2c1.4-0.5,2-0.1,1.6,1.3l-0.6,2.5
	c-0.1,0.6-0.5,1-1,1.2c-2.9,1.1-6.5,2.8-10.9,5.2c-4.3,2.4-7.2,4.2-8.7,5.4c4.2,1.3,8.1,3.4,11.6,6.1c2.2,1.7,3.5,2.8,4,3.2
	c2.7,2.4,4.9,3.8,6.5,3.9c1.4,0.2,1.8,1.4,1.1,3.6c-0.3,0.8-0.7,1.2-1.2,1.2c-1.9,0-4.8-1.9-8.8-5.7c-1.2-1.1-2.2-2-3-2.7
	c-0.1,5.3-2.5,8.3-7.3,8.8c-0.8,0.1-1.5,0.1-2.1,0c-1.2-0.2-1.7-1.1-1.5-2.8c0.2-1.7,0.6-2.6,1.4-2.6L71.7,36.7z M107.3,32.5
	c-0.3,1-0.4,1.5-0.2,1.6c2.2,1,3.4,1.2,3.6,0.5c0,0,0.4-1.2,1.2-3.7c0.1-0.1,0.2-0.1,0.3-0.1c0.6,0,1,0.6,1,1.8
	c0.1,1.2-0.1,2-0.4,2.3c-0.3,0.3-0.5,0.5-0.5,0.5c-0.8,2-1.6,3.4-2.3,4.2c-0.9,1-2.9,0.6-5.7-1.3c-1.4,1.6-2.7,2.4-4.1,2.4
	c-1.4,0-2.5-0.7-3.3-2.1c-1.5,1.8-2.9,2.7-4,2.9c-0.4,0-0.7-0.2-0.9-0.7c-1-2.1-1-3.4,0.2-3.9c0.2-0.1,0.5-0.2,0.7-0.2
	c2.5-0.2,4.3-1.5,5.4-4c0.1-0.3,0.4-0.4,0.7-0.3c0.4,0.1,0.5,0.4,0.3,0.8c-0.1,0.4-0.3,0.8-0.4,1.2c0.3,0.9,1.2,1.4,2.6,1.4
	c1.9-0.1,3.5-1.3,4.7-3.8c0.2-0.5,0.5-0.6,0.9-0.5C107.3,31.7,107.4,32.1,107.3,32.5z M116.5,20.9c2.2,5.3,3.1,10.2,2.6,14.8
	c-0.1,0.7-0.3,1.4-0.6,2.2c-0.4,0.8-0.9,1.2-1.6,1.2c-1.3,0-2.9-1.3-4.7-3.8c-0.6-0.8-0.8-2-0.6-3.7c0.1-0.7,0.3-1,0.8-1
	c0.3,0,0.5,0.2,0.7,0.6c0.7,1.6,2.2,2.8,4.4,3.6c-0.1-2-1.1-5-3.2-9c-0.2-0.3-0.2-0.7-0.1-1.2c0,0,0.3-1.2,0.8-3.7
	C115.2,19.2,115.8,19.2,116.5,20.9z M117.3,43.4c0.2-0.2,0.4-0.3,0.7-0.2c1.1,0.4,2.1,1,2.9,1.7c0.2,0.2,0.3,0.5,0.1,0.7l-1.9,3
	c-0.2,0.3-0.4,0.3-0.7,0.1c-0.3-0.2-1.2-0.8-2.9-1.8c-0.3-0.2-0.3-0.4-0.1-0.7L117.3,43.4z M134.9,34.7c-0.8-1.3-1.6-1.3-2.5-0.2
	C133.1,35.3,133.9,35.4,134.9,34.7z M131.1,32.8c1-2.9,2.2-4.3,3.5-4.2c1,0,1.8,0.6,2.5,1.8c0.7,1.2,1.1,2.5,1.2,4
	c0.1,1.5-0.1,3.4-0.7,5.9c-0.6,2.4-1.8,4.7-3.5,6.8c-1.7,2.1-3.2,3.2-4.4,3.3c-0.9,0.1-2.3,0-4.2-0.4c-1.8-0.4-3.2-0.8-4.1-1.1
	c-0.3-0.1-0.4-0.3-0.3-0.7c0.1-0.3,0.3-0.5,0.8-0.4c1.6,0.2,3.5,0.1,5.7-0.4c1.1-0.2,2.6-1.3,4.8-3.1c2.1-1.8,3.4-3.3,3.8-4.5
	c-0.1-0.3-0.2-0.7-0.3-1.2c-1.1,1.4-2.5,1.8-4.1,1.1C130,38.8,129.8,36.5,131.1,32.8z M152.7,32.9c0.6,0.8,1,1.6,1.1,2.4
	c0.2,0.9,0.2,2.1,0.1,3.4c-0.3,3-1.3,5.4-3,7.3c-2.1,2.4-4,3.5-5.7,3.5c-2.8-0.1-5.4-1-7.7-2.5c-0.4-0.2-0.5-0.5-0.4-0.8
	c0.1-0.4,0.4-0.4,1-0.3c1.7,0.5,3.1,0.6,4.3,0.3c4.8-1.1,8.1-3.6,9.8-7.3l-1.2-0.8c-0.5-0.4-0.7-1-0.5-1.8l0.6-3
	c0.1-0.4,0.2-0.7,0.4-0.8C151.8,32.1,152.2,32.3,152.7,32.9z M155.9,33.1c0.6-0.6,0.9-1.2,0.9-1.9c0-0.7,0.2-1.1,0.6-1.1
	c0.4,0,0.7,0.2,0.7,0.8c0.2,2.1,0,3.8-0.6,5.2c-0.6,1.4-1.6,2.2-3,2.5c-1.4,0.2-2.5,0.1-3.4-0.3c-0.6-0.3-0.8-1-0.6-1.9l0.6-3.1
	c0.1-0.4,0.2-0.7,0.4-0.9c0.4-0.3,0.8-0.2,1.2,0.3c0.4,0.5,0.9,0.7,1.6,0.8S155.6,33.4,155.9,33.1z M159.1,19
	c0.2-0.2,0.4-0.3,0.7-0.2c1.1,0.4,2.1,1,2.9,1.7c0.2,0.2,0.3,0.5,0.1,0.7l-1.9,3c-0.2,0.3-0.4,0.3-0.7,0.1c-0.2-0.2-1-0.7-2.1-1.4
	l-1.3,2.1c-0.2,0.3-0.5,0.3-0.7,0.1c-0.3-0.2-1.2-0.8-2.9-1.8c-0.3-0.2-0.3-0.4-0.1-0.7l1.9-2.9c0.2-0.2,0.4-0.3,0.7-0.2
	c0.8,0.3,1.5,0.7,2.2,1.2L159.1,19z"/>
</svg>
