<?xml version="1.0" encoding="utf-8"?>
<!-- Generator: Adobe Illustrator 21.1.0, SVG Export Plug-In . SVG Version: 6.00 Build 0)  -->
<svg version="1.1" id="Слой_1" xmlns="http://www.w3.org/2000/svg" xmlns:xlink="http://www.w3.org/1999/xlink" x="0px" y="0px"
	 viewBox="0 0 97 22" style="enable-background:new 0 0 97 22;" xml:space="preserve">
<style type="text/css">
	.st0{fill:#1DA1EC;}
</style>
<path class="st0" d="M27.5,0C13.9,0,3.5,9.7,0,14.5C2.5,12,10,6.5,20.5,6c7.5-0.4,13,1.5,20,4.5C47.2,13.4,63.4,20.6,77,21
	c13.6,0.4,19-7.2,20-11c-7.2,5.6-17.7,5.7-22,5c-3.7-0.5-13.8-2.9-25-8.5C38.8,0.9,30.3-0.2,27.5,0z"/>
<path class="st0" d="M20.5,8.5C10.1,8.5,2.5,14.8,0,18c8-8,18.5-7.3,20.5-7c4,0.5,6.3,1.7,8.5,2.5c3.5,1.5,7.3,4.1,13.5,6
	c8,2.5,12.8,2.2,15.5,2l0,0c-6.3-2.8-15.5-7-19.5-8.5C27.5,8.5,25,8.5,20.5,8.5L20.5,8.5z"/>
</svg>
